<?xml version="1.0" standalone="no"?>
<!DOCTYPE svg PUBLIC "-//W3C//DTD SVG 20010904//EN"
 "http://www.w3.org/TR/2001/REC-SVG-20010904/DTD/svg10.dtd">
<svg version="1.0" xmlns="http://www.w3.org/2000/svg"
 width="201.000000pt" height="201.000000pt" viewBox="0 0 201.000000 201.000000"
 preserveAspectRatio="xMidYMid meet">
<metadata>
Created by potrace 1.11, written by Peter Selinger 2001-2013
</metadata>
<g transform="translate(0.000000,201.000000) scale(0.100000,-0.100000)"
fill="#000000" stroke="none">
<path d="M0 1583 l0 -428 65 -2 c70 -1 71 -1 65 65 -1 12 9 34 22 47 29 31 43
32 24 3 -8 -13 -17 -43 -20 -66 -5 -39 -3 -45 17 -50 22 -6 22 -6 -3 -13 -24
-7 -24 -7 -2 -8 12 -1 22 -5 22 -10 0 -21 -13 -41 -26 -41 -16 0 -19 -36 -4
-42 6 -2 5 -18 -1 -44 -8 -30 -7 -58 4 -110 l14 -69 -24 -3 c-32 -5 -29 -22 5
-22 24 0 32 -10 71 -86 36 -70 63 -105 153 -196 60 -61 114 -122 119 -135 5
-13 16 -56 24 -95 14 -69 14 -72 -9 -122 -20 -43 -56 -142 -56 -153 0 -2 243
-3 540 -3 472 0 539 2 534 15 -3 8 8 32 26 55 38 48 20 53 -28 8 l-34 -33 7
32 c5 26 3 33 -9 33 -9 0 -16 -11 -18 -27 -3 -24 -7 -17 -31 41 -15 38 -26 75
-23 82 3 7 -2 15 -10 18 -11 4 -13 15 -9 43 15 91 2 83 126 83 106 0 111 -1
106 -20 -3 -12 1 -24 11 -30 10 -5 12 -10 5 -10 -9 0 -13 -17 -13 -50 0 -29
-7 -61 -16 -75 -8 -13 -22 -48 -30 -77 -9 -29 -18 -61 -21 -70 -5 -17 10 -18
216 -18 l221 0 -2 238 -3 237 -95 -2 c-52 -1 -113 2 -135 6 -29 6 -3 9 93 9
123 0 153 4 141 17 -3 2 -113 5 -244 5 l-239 1 34 26 c83 62 190 185 236 271
l46 87 5 131 c4 99 2 150 -11 210 -9 43 -18 90 -21 104 -6 26 29 -62 45 -115
8 -26 9 -24 6 18 -3 45 6 63 17 34 3 -9 26 -15 66 -16 l61 -2 0 376 0 375
-1005 0 -1005 0 0 -427z m1557 -135 c-2 -18 -4 -4 -4 32 0 36 2 50 4 33 2 -18
2 -48 0 -65z m250 -30 c-3 -7 -5 -2 -5 12 0 14 2 19 5 13 2 -7 2 -19 0 -25z
m-1513 -15 c-4 -16 -10 -32 -15 -37 -7 -8 -4 17 7 52 7 24 14 11 8 -15z m247
0 c-12 -20 -14 -14 -5 12 4 9 9 14 11 11 3 -2 0 -13 -6 -23z m239 -7 c0 -2 -8
-10 -17 -17 -16 -13 -17 -12 -4 4 13 16 21 21 21 13z m268 -26 c17 -27 10 -25
-19 6 -13 14 -17 23 -9 19 9 -3 21 -14 28 -25z m-96 -9 c4 -26 2 -29 -14 -20
-21 11 -24 49 -4 49 8 0 16 -13 18 -29z m-387 -35 c15 -10 24 -20 21 -23 -3
-3 -13 0 -22 8 -9 8 -22 14 -28 14 -13 0 -16 7 -15 38 0 21 0 22 9 1 4 -11 20
-28 35 -38z m988 -122 l6 -161 -37 -5 c-70 -10 -126 -44 -183 -111 -30 -36
-59 -73 -66 -83 -10 -17 -13 -17 -23 -4 -6 8 -9 34 -8 57 2 22 0 39 -4 36 -13
-7 -9 82 3 94 9 9 8 28 -6 75 -9 35 -22 69 -28 77 -6 7 -12 19 -13 26 -1 7 -7
21 -13 32 -8 15 -10 12 -6 -15 5 -47 -10 -37 -55 35 -33 51 -37 62 -21 60 12
-1 17 -7 14 -18 -4 -14 1 -17 20 -15 18 2 24 -1 20 -11 -4 -11 -8 -11 -21 -1
-12 10 -11 7 2 -14 20 -30 29 -36 20 -15 -2 7 5 22 17 33 16 14 23 15 26 7 6
-16 163 -18 163 -3 0 6 -18 10 -40 10 -22 0 -40 5 -40 10 0 6 18 10 40 10 22
0 40 -4 40 -10 0 -5 18 -10 40 -10 22 0 40 -4 40 -10 0 -5 18 -10 40 -10 31 0
40 -4 40 -17 0 -40 16 -40 17 0 2 171 9 152 16 -49z m-1286 124 c-3 -8 -6 -5
-6 6 -1 11 2 17 5 13 3 -3 4 -12 1 -19z m290 -35 c7 -10 18 -26 23 -35 8 -14
7 -16 -5 -12 -8 4 -15 5 -16 3 0 -2 -2 -23 -5 -46 l-6 -43 40 0 41 0 -6 -57
c-3 -32 -10 -63 -15 -69 -4 -7 -5 -37 -2 -68 l7 -57 -51 35 c-28 19 -65 37
-82 41 -23 5 -29 11 -26 23 26 87 43 161 38 166 -3 3 3 6 14 7 10 0 13 3 7 6
-14 5 -17 42 -7 92 7 35 29 41 51 14z m-303 -15 c-8 -27 -12 -33 -19 -27 -7 8
7 49 17 49 5 0 6 -10 2 -22z m414 2 c-7 -11 -15 -15 -17 -9 -2 6 3 15 10 20
20 12 21 11 7 -11z m-448 -5 c-7 -8 -17 -15 -23 -15 -6 0 -2 7 9 15 25 19 30
19 14 0z m414 0 c-4 -8 -8 -15 -10 -15 -2 0 -4 7 -4 15 0 8 4 15 10 15 5 0 7
-7 4 -15z m6 -55 c0 -11 -4 -20 -9 -20 -5 0 -7 9 -4 20 3 11 7 20 9 20 2 0 4
-9 4 -20z m200 -244 c0 -8 -8 -13 -17 -11 -10 2 -20 4 -23 4 -7 2 23 21 33 21
4 0 7 -6 7 -14z m55 4 c3 -5 -3 -10 -14 -10 -12 0 -21 5 -21 10 0 6 6 10 14
10 8 0 18 -4 21 -10z m51 -15 c4 -14 3 -29 -1 -33 -8 -8 -35 26 -35 45 0 24
29 14 36 -12z m38 8 c4 -4 15 -8 23 -8 9 0 18 -5 20 -12 3 -9 -4 -10 -29 -2
-18 5 -34 9 -35 9 -2 0 -3 5 -3 10 0 12 13 13 24 3z m-254 -13 c0 -5 -7 -7
-15 -4 -8 4 -15 8 -15 10 0 2 7 4 15 4 8 0 15 -4 15 -10z m47 4 c-3 -3 -12 -4
-19 -1 -8 3 -5 6 6 6 11 1 17 -2 13 -5z m-87 -24 c0 -20 -25 -38 -36 -27 -8 7
15 47 26 47 6 0 10 -9 10 -20z m403 -16 c11 -11 -3 -24 -18 -18 -8 4 -12 10
-9 15 6 11 18 12 27 3z m-25 -42 c2 -6 -6 -10 -17 -9 -22 1 -26 8 -14 21 9 9
26 3 31 -12z m-35 -28 c11 -11 -3 -24 -18 -18 -8 4 -12 10 -9 15 6 11 18 12
27 3z m-28 -35 c10 -14 1 -21 -19 -13 -9 3 -13 10 -10 15 7 12 21 11 29 -2z
m-25 -28 c0 -5 -9 -7 -20 -4 -11 3 -20 7 -20 9 0 2 9 4 20 4 11 0 20 -4 20 -9z
m-50 -32 c0 -5 -7 -9 -15 -9 -15 0 -20 12 -9 23 8 8 24 -1 24 -14z m153 -211
c10 -40 11 -428 1 -437 -5 -5 -82 -11 -170 -15 -124 -5 -164 -3 -171 6 -6 7
-14 90 -18 183 -3 94 -9 178 -12 189 -3 12 -1 16 6 12 6 -4 11 0 12 11 1 10 5
2 9 -17 5 -19 6 -38 4 -42 -3 -5 13 -8 36 -8 23 0 39 4 36 9 -4 5 -4 16 0 24
6 16 40 12 50 -5 4 -6 -2 -8 -15 -3 -12 3 -21 2 -21 -4 0 -17 19 -22 40 -11
15 8 19 19 16 43 -3 26 -8 33 -30 35 -27 3 -27 4 -10 23 20 22 40 25 47 7 3
-10 7 -10 18 -1 16 13 52 19 120 22 41 1 48 -2 52 -21z m-293 -90 c0 -5 -4 -8
-10 -8 -5 0 -10 10 -10 23 0 18 2 19 10 7 5 -8 10 -18 10 -22z m940 16 c0 -2
-7 -4 -15 -4 -8 0 -15 4 -15 10 0 5 7 7 15 4 8 -4 15 -8 15 -10z m80 -24 c0
-5 -9 -10 -21 -10 -11 0 -17 5 -14 10 3 6 13 10 21 10 8 0 14 -4 14 -10z"/>
<path d="M1180 1275 c0 -5 5 -17 10 -25 5 -8 10 -10 10 -5 0 6 -5 17 -10 25
-5 8 -10 11 -10 5z"/>
<path d="M520 1162 c0 -15 39 -25 76 -19 23 3 21 4 -11 6 -23 0 -46 6 -53 13
-9 9 -12 9 -12 0z"/>
<path d="M993 523 c-18 -7 -17 -72 1 -79 23 -9 56 15 56 39 0 37 -24 54 -57
40z m32 -36 c0 -26 -20 -25 -23 2 -3 16 1 22 10 19 7 -3 13 -12 13 -21z"/>
<path d="M900 480 c0 -39 1 -40 35 -40 19 0 35 5 35 10 0 6 -10 10 -22 10 -22
1 -23 1 -4 15 17 13 18 15 3 15 -22 0 -22 17 1 23 9 3 2 5 -15 6 -32 1 -33 0
-33 -39z"/>
<path d="M868 347 l-16 -43 49 0 c27 0 49 1 49 3 0 1 -7 21 -16 43 -22 54 -45
52 -66 -3z"/>
<path d="M964 347 c8 -50 14 -57 30 -35 12 16 14 16 29 1 22 -23 27 -15 20 34
-5 41 -6 42 -45 41 l-40 0 6 -41z m61 23 c-3 -5 -13 -10 -21 -10 -8 0 -12 5
-9 10 3 6 13 10 21 10 8 0 12 -4 9 -10z"/>
<path d="M760 359 c-26 -48 36 -96 70 -54 17 20 5 31 -16 15 -13 -12 -17 -11
-25 1 -13 20 -5 34 19 34 35 1 30 20 -5 23 -24 2 -34 -2 -43 -19z"/>
<path d="M852 238 c-26 -83 -24 -106 6 -76 10 10 17 10 32 0 18 -11 20 -10 19
10 -1 32 -23 91 -36 95 -6 2 -16 -11 -21 -29z"/>
<path d="M920 215 l0 -55 35 0 c37 0 48 18 16 27 -13 3 -21 17 -25 44 -9 58
-26 47 -26 -16z"/>
<path d="M1000 215 c0 -54 0 -55 30 -55 36 0 43 30 8 31 l-23 0 23 11 c27 14
29 28 2 28 -11 0 -20 5 -20 10 0 6 9 10 20 10 11 0 20 5 20 10 0 6 -13 10 -30
10 -30 0 -30 -1 -30 -55z"/>
<path d="M767 254 c-14 -14 -7 -43 15 -58 12 -9 19 -19 15 -22 -4 -4 -13 -1
-22 6 -16 14 -20 3 -6 -18 5 -8 17 -12 27 -10 24 4 34 68 10 68 -8 0 -18 5
-22 11 -4 8 1 9 16 4 16 -5 21 -4 18 6 -5 15 -40 24 -51 13z"/>
<path d="M22 550 c-15 -6 -22 -18 -22 -35 0 -28 0 -28 34 -15 14 5 26 8 26 6
0 -1 -9 -28 -19 -59 -11 -32 -16 -57 -10 -57 5 0 9 -34 9 -76 l0 -75 43 3 42
3 3 158 3 157 -43 -1 c-24 0 -53 -4 -66 -9z"/>
<path d="M300 300 l0 -60 65 0 65 0 0 60 0 60 -65 0 -65 0 0 -60z"/>
<path d="M404 55 c-8 -43 -7 -55 3 -55 7 0 15 10 17 23 15 71 15 87 3 87 -7 0
-17 -23 -23 -55z"/>
<path d="M87 53 c-11 -3 -16 -10 -13 -20 3 -8 6 -19 6 -24 0 -5 12 -9 28 -8
15 0 21 3 14 6 -17 7 -5 23 19 23 10 0 19 7 19 15 0 15 -33 18 -73 8z"/>
<path d="M0 40 c0 -5 5 -10 10 -10 6 0 10 -7 10 -15 0 -20 19 -19 27 1 6 16
-12 34 -34 34 -7 0 -13 -4 -13 -10z"/>
</g>
</svg>
